<svg xmlns="http://www.w3.org/2000/svg" viewBox="0 0 70.657 97.3476">
  <g id="full-rgb">
    <path id="logoMark_PathItem_" data-name="logoMark &lt;PathItem&gt;" d="M43.8767,48.9557l.187-.5886H47.483a.3568.3568,0,0,1,.3477.3477V71.2357c1.06-.736,2.09-1.5041,3.0963-2.2953V48.7148a3.4541,3.4541,0,0,0-3.444-3.444H23.174a3.4541,3.4541,0,0,0-3.444,3.444V68.9394c1.007.792,2.0366,1.5606,3.0962,2.2964V48.7148a.3569.3569,0,0,1,.3478-.3477h3.4193l.187.5886a2.084,2.084,0,0,0,1.9862,1.4533h13.124A2.084,2.084,0,0,0,43.8767,48.9557Z" style="fill: #1d92c0"/>
    <path id="logoMark_CompoundPathItem_" data-name="logoMark &lt;CompoundPathItem&gt;" d="M47.8307,80.3782v8.5184H22.8262V80.378q-1.5639-.7255-3.0962-1.5487V93.9036a3.4541,3.4541,0,0,0,3.444,3.444H47.483a3.4541,3.4541,0,0,0,3.444-3.444V78.83Q49.3949,79.649,47.8307,80.3782ZM35.3285,95.5616a2.59,2.59,0,1,1,2.59-2.59A2.59,2.59,0,0,1,35.3285,95.5616Z" style="fill: #12698e"/>
    <path id="logoMark_CompoundPathItem_2" data-name="logoMark &lt;CompoundPathItem&gt;" d="M35.3285,33.3768c-7.68,0-13.929-7.4865-13.929-16.6884S27.6481,0,35.3285,0,49.2574,7.4865,49.2574,16.6884,43.0088,33.3768,35.3285,33.3768Zm0-29.9119c-5.8964,0-10.6936,5.9321-10.6936,13.2235s4.7972,13.2235,10.6936,13.2235S46.022,23.98,46.022,16.6884,41.2248,3.4649,35.3285,3.4649Z" style="fill: #e06c4a"/>
    <path id="logoMark_PathItem_2" data-name="logoMark &lt;PathItem&gt;" d="M70.6051,49.5176a21.3563,21.3563,0,0,0-1.327-5.9019,19.33,19.33,0,0,0-3.0972-5.2894,16.6243,16.6243,0,0,0-4.7586-3.9747A16.9336,16.9336,0,0,0,55.5345,32.39a19.2783,19.2783,0,0,0-6.0964.2007,24.5461,24.5461,0,0,0-5.6217,1.8731A31.52,31.52,0,0,0,38.833,37.41a33.0158,33.0158,0,0,0-3.5045,2.9231A33.0258,33.0258,0,0,0,31.824,37.41a31.5211,31.5211,0,0,0-4.9835-2.9467A24.5437,24.5437,0,0,0,21.2189,32.59a19.2783,19.2783,0,0,0-6.0964-.2007,16.9336,16.9336,0,0,0-5.8878,1.9621,16.6243,16.6243,0,0,0-4.7586,3.9747,19.33,19.33,0,0,0-3.0972,5.2894,21.3563,21.3563,0,0,0-1.327,5.9019A18.2587,18.2587,0,0,0,.6111,55.615a17.7577,17.7577,0,0,0,2.6375,5.4838,13.1271,13.1271,0,0,0,.8924,1.168l.9023,1.1043c.6232.7433,1.2674,1.4362,1.9253,2.1209,1.3285,1.3515,2.7221,2.62,4.1559,3.8357A58.1891,58.1891,0,0,0,30.6,80.0949a.3371.3371,0,0,0,.2451-.6265A69.0259,69.0259,0,0,1,13.0083,67.2213a50.2029,50.2029,0,0,1-6.9006-8.0479,14.9728,14.9728,0,0,1-1.926-4.482,14.4879,14.4879,0,0,1-.295-4.8319,18.4208,18.4208,0,0,1,.4406-2.4275,23.2475,23.2475,0,0,1,.768-2.355,15.3106,15.3106,0,0,1,2.4834-4.1543,14.11,14.11,0,0,1,3.641-3.059,13.2843,13.2843,0,0,1,4.4827-1.562,18.4314,18.4314,0,0,1,9.7552,1.3524,31.7827,31.7827,0,0,1,4.6762,2.3205q1.1361.67,2.2255,1.4283c.72.493,1.4627,1.0349,2.0955,1.5577l.042.0349a1.381,1.381,0,0,0,1.6634,0l.042-.0347c.6328-.5228,1.3757-1.0647,2.0955-1.5577q1.0868-.7569,2.2255-1.4283a31.7877,31.7877,0,0,1,4.6762-2.3205,18.4316,18.4316,0,0,1,9.7553-1.3524,13.2853,13.2853,0,0,1,4.4826,1.562,14.1112,14.1112,0,0,1,3.641,3.059,15.3106,15.3106,0,0,1,2.4834,4.1543,23.2475,23.2475,0,0,1,.768,2.355A18.4372,18.4372,0,0,1,66.77,49.86a14.4879,14.4879,0,0,1-.295,4.8319,14.9754,14.9754,0,0,1-1.926,4.482,50.1978,50.1978,0,0,1-6.9006,8.0479A69.0259,69.0259,0,0,1,39.8121,79.4684a.3371.3371,0,0,0,.2451.6265A58.1891,58.1891,0,0,0,59.5325,69.3277c1.4338-1.2156,2.8274-2.4842,4.1559-3.8357.6579-.6847,1.3021-1.3776,1.9252-2.1209l.9024-1.1043a13.1075,13.1075,0,0,0,.8923-1.168,17.7579,17.7579,0,0,0,2.6376-5.4838A18.2587,18.2587,0,0,0,70.6051,49.5176Z" style="fill: #e06c4a"/>
  </g>
</svg>
