<svg xmlns="http://www.w3.org/2000/svg" viewBox="0 0 159.9287 51.7998">
  <g id="full-rgb">
    <g id="type">
      <path id="type_CompoundPathItem_" data-name="type &lt;CompoundPathItem&gt;" d="M2.2549,16.3105A2.3077,2.3077,0,0,1,.624,15.7344,1.8766,1.8766,0,0,1,0,14.2949a1.9875,1.9875,0,0,1,.624-1.5342,2.3081,2.3081,0,0,1,1.6309-.5761H14.1035a2.31,2.31,0,0,1,1.6309.5761,1.991,1.991,0,0,1,.624,1.5342,1.88,1.88,0,0,1-.624,1.44,2.3092,2.3092,0,0,1-1.6309.5761ZM6.668,37.4648a2.3768,2.3768,0,0,1-2.3506-2.4462V11.3691A12.4841,12.4841,0,0,1,5.6846,5.373,9.89,9.89,0,0,1,9.498,1.415,11.1106,11.1106,0,0,1,15.1582,0a2.53,2.53,0,0,1,1.751.624,2.0337,2.0337,0,0,1,.6963,1.583,2.0541,2.0541,0,0,1-.6963,1.5586,2.4715,2.4715,0,0,1-1.751.6485A5.8817,5.8817,0,0,0,12.041,5.23,5.5627,5.5627,0,0,0,9.9541,7.4834,7.3263,7.3263,0,0,0,9.21,10.89v24.129a2.398,2.398,0,0,1-.6709,1.7744A2.53,2.53,0,0,1,6.668,37.4648Z" style="fill: #1e92c0"/>
      <path id="type_CompoundPathItem_2" data-name="type &lt;CompoundPathItem&gt;" d="M34.7783,37.6562a13.5614,13.5614,0,0,1-6.8594-1.7021,12.3316,12.3316,0,0,1-4.6777-4.7012,13.6969,13.6969,0,0,1-1.7021-6.8838,13.7966,13.7966,0,0,1,1.7021-6.9316,12.3462,12.3462,0,0,1,4.6777-4.7012,13.5629,13.5629,0,0,1,6.8594-1.7031A13.4718,13.4718,0,0,1,41.59,12.7363a12.35,12.35,0,0,1,4.6768,4.7012A13.797,13.797,0,0,1,47.97,24.3691a13.8486,13.8486,0,0,1-1.6787,6.8838,12.1752,12.1752,0,0,1-4.6533,4.7012A13.5661,13.5661,0,0,1,34.7783,37.6562Zm0-4.3164a8.4112,8.4112,0,0,0,4.4131-1.1513,8.0622,8.0622,0,0,0,2.9981-3.166,9.7051,9.7051,0,0,0,1.0791-4.6534A9.8434,9.8434,0,0,0,42.19,19.6924a8.0169,8.0169,0,0,0-2.9981-3.19,9.033,9.033,0,0,0-8.8262,0,8.177,8.177,0,0,0-3.0224,3.19,9.6611,9.6611,0,0,0-1.1035,4.6767,9.5259,9.5259,0,0,0,1.1035,4.6534,8.2255,8.2255,0,0,0,3.0224,3.166A8.4064,8.4064,0,0,0,34.7783,33.34Z" style="fill: #1e92c0"/>
      <path id="type_CompoundPathItem_3" data-name="type &lt;CompoundPathItem&gt;" d="M60.0576,37.4648a2.4572,2.4572,0,0,1-1.7754-.6,2.3876,2.3876,0,0,1-.623-1.7988V13.624a2.4053,2.4053,0,0,1,.623-1.7754,2.4053,2.4053,0,0,1,1.7754-.623,2.4464,2.4464,0,0,1,1.7988.6,2.4462,2.4462,0,0,1,.6,1.7988V35.0664a2.457,2.457,0,0,1-.6,1.7744A2.3869,2.3869,0,0,1,60.0576,37.4648ZM60.01,21.06a9.5754,9.5754,0,0,1,1.415-5.1573,10.3733,10.3733,0,0,1,3.8135-3.622,10.6238,10.6238,0,0,1,5.2763-1.3428,7.8832,7.8832,0,0,1,4.294.9355,1.9787,1.9787,0,0,1,1.0791,2.2305,1.8385,1.8385,0,0,1-.5518,1.0313,1.9017,1.9017,0,0,1-.9355.456,2.8352,2.8352,0,0,1-1.1514-.0478,13.4465,13.4465,0,0,0-5.5166-.0967,7.4788,7.4788,0,0,0-3.8613,1.9668,4.9883,4.9883,0,0,0-1.415,3.6465Z" style="fill: #1e92c0"/>
      <path id="type_CompoundPathItem_4" data-name="type &lt;CompoundPathItem&gt;" d="M96.5625,37.6562a12.9891,12.9891,0,0,1-6.7158-1.75,12.82,12.82,0,0,1-4.7012-4.7734,13.8352,13.8352,0,0,1-1.7744-6.8115V2.4473A2.3555,2.3555,0,0,1,84.0664.6719a2.6494,2.6494,0,0,1,3.5264,0,2.4032,2.4032,0,0,1,.6709,1.7754V15.3984a12.3549,12.3549,0,0,1,4.0537-3.1894,12.1327,12.1327,0,0,1,11.4892.5752,12.4609,12.4609,0,0,1,4.3887,4.749,14.1425,14.1425,0,0,1,1.6074,6.7881,13.3392,13.3392,0,0,1-1.7509,6.8115,12.9081,12.9081,0,0,1-11.4893,6.5234Zm0-4.3164a8.1834,8.1834,0,0,0,4.3652-1.1757,8.4755,8.4755,0,0,0,3.0459-3.2383,9.4428,9.4428,0,0,0,1.128-4.6045,9.277,9.277,0,0,0-1.128-4.6055,8.5787,8.5787,0,0,0-3.0459-3.1894,8.6456,8.6456,0,0,0-8.706,0,8.3287,8.3287,0,0,0-3.0459,3.1894,9.4239,9.4239,0,0,0-1.1035,4.6055,9.5925,9.5925,0,0,0,1.1035,4.6045,8.2114,8.2114,0,0,0,7.3867,4.414Z" style="fill: #1e92c0"/>
      <path id="type_CompoundPathItem_5" data-name="type &lt;CompoundPathItem&gt;" d="M122.418,6.9561a3.0446,3.0446,0,0,1-2.2305-.9356,3.0467,3.0467,0,0,1-.9355-2.23,3.0467,3.0467,0,0,1,.9355-2.23,3.1265,3.1265,0,0,1,4.4609,0,3.0425,3.0425,0,0,1,.9356,2.23,3.0426,3.0426,0,0,1-.9356,2.2305A3.0429,3.0429,0,0,1,122.418,6.9561Zm0,30.5087a2.3774,2.3774,0,0,1-2.4463-2.4462V13.6719a2.3555,2.3555,0,0,1,.6953-1.7754,2.4359,2.4359,0,0,1,4.1973,1.7754V35.0186a2.42,2.42,0,0,1-.6709,1.7509A2.3558,2.3558,0,0,1,122.418,37.4648Z" style="fill: #1e92c0"/>
      <path id="type_CompoundPathItem_6" data-name="type &lt;CompoundPathItem&gt;" d="M148.7041,37.6562a14.4315,14.4315,0,0,1-7.0752-1.7021,12.4412,12.4412,0,0,1-4.8457-4.7012,13.398,13.398,0,0,1-1.75-6.8838,14.1085,14.1085,0,0,1,1.6543-6.9316,12.1078,12.1078,0,0,1,4.5811-4.7012,13.11,13.11,0,0,1,6.7158-1.7031,12.0119,12.0119,0,0,1,6.4277,1.6553,10.7857,10.7857,0,0,1,4.1016,4.5566,15.0939,15.0939,0,0,1,1.415,6.6924,2.0091,2.0091,0,0,1-.623,1.5107,2.1891,2.1891,0,0,1-1.583.6H138.3906V22.21h19.1875l-1.9668,1.3437a10.2729,10.2729,0,0,0-.959-4.293,6.9889,6.9889,0,0,0-6.6679-4.1015,8.7383,8.7383,0,0,0-4.6768,1.1992,7.7321,7.7321,0,0,0-2.95,3.2852,10.7323,10.7323,0,0,0-1.0078,4.7255,9.1871,9.1871,0,0,0,1.1992,4.7012,8.7539,8.7539,0,0,0,3.3106,3.2617,9.6273,9.6273,0,0,0,4.8447,1.1992A9.0881,9.0881,0,0,0,151.75,32.98a9.429,9.429,0,0,0,2.5186-1.2715,2.7164,2.7164,0,0,1,1.56-.5508,2.0956,2.0956,0,0,1,1.4629.503,2.278,2.278,0,0,1,.8633,1.583,1.7041,1.7041,0,0,1-.7676,1.4873,13.267,13.267,0,0,1-4.0537,2.11A14.47,14.47,0,0,1,148.7041,37.6562Z" style="fill: #1e92c0"/>
    </g>
    <g id="tagline">
      <path id="tagline_CompoundPathItem_" data-name="tagline &lt;CompoundPathItem&gt;" d="M14.0283,49.627a1.24,1.24,0,0,1,.2373.7734,1.1313,1.1313,0,0,1-.4892.9824,2.4593,2.4593,0,0,1-1.4278.3467H9.9141V46.832H12.209a2.25,2.25,0,0,1,1.3359.34,1.09,1.09,0,0,1,.4688.9336,1.2212,1.2212,0,0,1-.168.6435,1.1464,1.1464,0,0,1-.4609.4336A1.304,1.304,0,0,1,14.0283,49.627Zm-3.2041-2.0811v1.3506h1.2871a1.3066,1.3066,0,0,0,.73-.1719.5626.5626,0,0,0,.2559-.5.57.57,0,0,0-.2559-.5068,1.3066,1.3066,0,0,0-.73-.1719ZM13.35,50.31q0-.7076-1.0566-.7071H10.8242v1.4131H12.293Q13.3492,51.0156,13.35,50.31Z" style="fill: #11698d"/>
      <path id="tagline_CompoundPathItem_2" data-name="tagline &lt;CompoundPathItem&gt;" d="M20.31,50.9668V51.73H16.6367V46.832h3.5752v.7627h-2.665v1.2735h2.3642v.749H17.5469v1.35Z" style="fill: #11698d"/>
      <path id="tagline_CompoundPathItem_3" data-name="tagline &lt;CompoundPathItem&gt;" d="M23.7168,47.6016h-1.623v-.77H26.249v.77H24.626V51.73h-.9092Z" style="fill: #11698d"/>
      <path id="tagline_CompoundPathItem_4" data-name="tagline &lt;CompoundPathItem&gt;" d="M29.3975,47.6016H27.7744v-.77H31.93v.77H30.3066V51.73h-.9091Z" style="fill: #11698d"/>
      <path id="tagline_CompoundPathItem_5" data-name="tagline &lt;CompoundPathItem&gt;" d="M37.6865,50.9668V51.73H34.0137V46.832h3.5752v.7627H34.9238v1.2735h2.3643v.749H34.9238v1.35Z" style="fill: #11698d"/>
      <path id="tagline_CompoundPathItem_6" data-name="tagline &lt;CompoundPathItem&gt;" d="M43.3047,51.73l-1-1.4346a1.7623,1.7623,0,0,1-.1895.0078H41.0107V51.73h-.91V46.832h2.0146a2.7148,2.7148,0,0,1,1.1094.21,1.6193,1.6193,0,0,1,.7236.6016,1.6859,1.6859,0,0,1,.252.9306,1.6552,1.6552,0,0,1-.27.9512,1.5882,1.5882,0,0,1-.7725.5947l1.126,1.6094Zm-.3281-3.876a1.4,1.4,0,0,0-.9024-.2519H41.0107v1.9521h1.0635a1.3879,1.3879,0,0,0,.9024-.2549.89.89,0,0,0,.3076-.7246A.8786.8786,0,0,0,42.9766,47.8535Z" style="fill: #11698d"/>
      <path id="tagline_CompoundPathItem_7" data-name="tagline &lt;CompoundPathItem&gt;" d="M50.8809,51.4746a2.4218,2.4218,0,0,1-.9444-.9033,2.6013,2.6013,0,0,1,0-2.5811,2.413,2.413,0,0,1,.9444-.9023,2.9651,2.9651,0,0,1,2.7,0,2.4269,2.4269,0,0,1,.9453.8984,2.6161,2.6161,0,0,1,0,2.5889,2.4294,2.4294,0,0,1-.9453.8994,2.9651,2.9651,0,0,1-2.7,0Zm2.2314-.6934a1.587,1.587,0,0,0,.6162-.6152,1.8622,1.8622,0,0,0,0-1.7695,1.5963,1.5963,0,0,0-.6162-.6162,1.87,1.87,0,0,0-1.7627,0,1.6005,1.6005,0,0,0-.6152.6162,1.8615,1.8615,0,0,0,0,1.7695,1.5912,1.5912,0,0,0,.6152.6152,1.8694,1.8694,0,0,0,1.7627,0Z" style="fill: #11698d"/>
      <path id="tagline_CompoundPathItem_8" data-name="tagline &lt;CompoundPathItem&gt;" d="M57.7578,51.23a2.2187,2.2187,0,0,1-.5674-1.6338V46.832h.91v2.7285q0,1.4415,1.2451,1.4415,1.2378,0,1.2383-1.4415V46.832H61.48v2.7637A2.2291,2.2291,0,0,1,60.916,51.23a2.4713,2.4713,0,0,1-3.1582,0Z" style="fill: #11698d"/>
      <path id="tagline_CompoundPathItem_9" data-name="tagline &lt;CompoundPathItem&gt;" d="M65.0547,47.6016H63.4316v-.77h4.1553v.77h-1.623V51.73h-.9092Z" style="fill: #11698d"/>
      <path id="tagline_CompoundPathItem_10" data-name="tagline &lt;CompoundPathItem&gt;" d="M70.5283,51.4746a2.395,2.395,0,0,1-.9375-.8994,2.6254,2.6254,0,0,1,.003-2.5889,2.4218,2.4218,0,0,1,.9414-.8984,2.9452,2.9452,0,0,1,2.4375-.1152,2.24,2.24,0,0,1,.84.6084l-.5879.5527A1.712,1.712,0,0,0,71.917,47.56a1.844,1.844,0,0,0-.9033.2207,1.5943,1.5943,0,0,0-.6221.6123,1.8777,1.8777,0,0,0,0,1.7773,1.5851,1.5851,0,0,0,.6221.6113,1.8332,1.8332,0,0,0,.9033.2208,1.7018,1.7018,0,0,0,1.3076-.5811l.5879.56a2.2377,2.2377,0,0,1-.8428.6093,2.8282,2.8282,0,0,1-1.1025.21A2.7552,2.7552,0,0,1,70.5283,51.4746Z" style="fill: #11698d"/>
      <path id="tagline_CompoundPathItem_11" data-name="tagline &lt;CompoundPathItem&gt;" d="M76.918,51.4746a2.4218,2.4218,0,0,1-.9444-.9033,2.6013,2.6013,0,0,1,0-2.5811,2.413,2.413,0,0,1,.9444-.9023,2.9651,2.9651,0,0,1,2.7,0,2.4269,2.4269,0,0,1,.9453.8984,2.6161,2.6161,0,0,1,0,2.5889,2.4294,2.4294,0,0,1-.9453.8994,2.9651,2.9651,0,0,1-2.7,0Zm2.2314-.6934a1.587,1.587,0,0,0,.6162-.6152,1.8615,1.8615,0,0,0,0-1.7695,1.5963,1.5963,0,0,0-.6162-.6162,1.87,1.87,0,0,0-1.7627,0,1.6005,1.6005,0,0,0-.6152.6162,1.8622,1.8622,0,0,0,0,1.7695,1.5912,1.5912,0,0,0,.6152.6152,1.8694,1.8694,0,0,0,1.7627,0Z" style="fill: #11698d"/>
      <path id="tagline_CompoundPathItem_12" data-name="tagline &lt;CompoundPathItem&gt;" d="M87.77,51.73l-.0078-3.2461L86.1533,51.17h-.4062l-1.6084-2.6445V51.73h-.8682V46.832h.749l1.9444,3.2461,1.91-3.2461h.749L88.63,51.73Z" style="fill: #11698d"/>
      <path id="tagline_CompoundPathItem_13" data-name="tagline &lt;CompoundPathItem&gt;" d="M95.0234,50.9668V51.73H91.3506V46.832h3.5752v.7627H92.2607v1.2735H94.625v.749H92.2607v1.35Z" style="fill: #11698d"/>
      <path id="tagline_CompoundPathItem_14" data-name="tagline &lt;CompoundPathItem&gt;" d="M97.86,51.6387a2.29,2.29,0,0,1-.836-.4268l.3145-.707a2.4652,2.4652,0,0,0,.7382.3887,2.6752,2.6752,0,0,0,.878.15,1.5168,1.5168,0,0,0,.8144-.1748.5294.5294,0,0,0,.27-.4619.4485.4485,0,0,0-.15-.3467,1.07,1.07,0,0,0-.3809-.2128c-.1543-.0518-.3642-.1094-.63-.1748a7.5636,7.5636,0,0,1-.9062-.2657,1.4942,1.4942,0,0,1-.5947-.417,1.1206,1.1206,0,0,1-.2481-.7656,1.3036,1.3036,0,0,1,.2207-.7383,1.4966,1.4966,0,0,1,.6641-.5283,2.7084,2.7084,0,0,1,1.0879-.1953,3.5329,3.5329,0,0,1,.8818.1113,2.4431,2.4431,0,0,1,.748.3223l-.2861.707a2.8349,2.8349,0,0,0-.6719-.2871,2.5058,2.5058,0,0,0-.6787-.0976,1.4179,1.4179,0,0,0-.8008.1816.5613.5613,0,0,0-.2627.4824.4394.4394,0,0,0,.15.3428,1.0927,1.0927,0,0,0,.3819.21c.1533.0517.3633.1093.6289.1748a6.5675,6.5675,0,0,1,.8955.2627,1.5342,1.5342,0,0,1,.5986.416,1.0993,1.0993,0,0,1,.2481.7558,1.2935,1.2935,0,0,1-.22.7344,1.5062,1.5062,0,0,1-.6689.5244,2.7089,2.7089,0,0,1-1.0908.1963A3.7267,3.7267,0,0,1,97.86,51.6387Z" style="fill: #11698d"/>
      <path id="tagline_CompoundPathItem_15" data-name="tagline &lt;CompoundPathItem&gt;" d="M110.2383,50.9668V51.73h-3.6729V46.832h3.5752v.7627h-2.665v1.2735H109.84v.749h-2.3642v1.35Z" style="fill: #11698d"/>
      <path id="tagline_CompoundPathItem_16" data-name="tagline &lt;CompoundPathItem&gt;" d="M117.0039,46.832V51.73h-.748l-2.7012-3.3164V51.73h-.9024V46.832h.7491l2.7,3.3164V46.832Z" style="fill: #11698d"/>
      <path id="tagline_CompoundPathItem_17" data-name="tagline &lt;CompoundPathItem&gt;" d="M122.8945,50.5957h-2.4492l-.4824,1.1338h-.9375L121.23,46.832h.8955l2.21,4.8975h-.9512Zm-.3007-.7129-.9239-2.1406-.916,2.1406Z" style="fill: #11698d"/>
      <path id="tagline_CompoundPathItem_18" data-name="tagline &lt;CompoundPathItem&gt;" d="M130.4707,49.627a1.24,1.24,0,0,1,.2373.7734,1.1313,1.1313,0,0,1-.4892.9824,2.4593,2.4593,0,0,1-1.4278.3467h-2.4346V46.832h2.295a2.25,2.25,0,0,1,1.3359.34,1.09,1.09,0,0,1,.4688.9336,1.2212,1.2212,0,0,1-.168.6435,1.146,1.146,0,0,1-.461.4336A1.3038,1.3038,0,0,1,130.4707,49.627Zm-3.2041-2.0811v1.3506h1.2871a1.3066,1.3066,0,0,0,.7305-.1719.5625.5625,0,0,0,.2558-.5.57.57,0,0,0-.2558-.5068,1.3066,1.3066,0,0,0-.7305-.1719ZM129.792,50.31q0-.7076-1.0566-.7071h-1.4688v1.4131h1.4688Q129.7916,51.0156,129.792,50.31Z" style="fill: #11698d"/>
      <path id="tagline_CompoundPathItem_19" data-name="tagline &lt;CompoundPathItem&gt;" d="M133.0791,46.832h.91V50.96H136.55v.77h-3.4707Z" style="fill: #11698d"/>
      <path id="tagline_CompoundPathItem_20" data-name="tagline &lt;CompoundPathItem&gt;" d="M142.3418,50.9668V51.73h-3.6729V46.832h3.5752v.7627h-2.665v1.2735h2.3643v.749h-2.3643v1.35Z" style="fill: #11698d"/>
      <path id="tagline_CompoundPathItem_21" data-name="tagline &lt;CompoundPathItem&gt;" d="M144.7549,46.832h2.1406a3.0692,3.0692,0,0,1,1.3926.3047,2.2587,2.2587,0,0,1,.9443.86,2.62,2.62,0,0,1,0,2.5674,2.2462,2.2462,0,0,1-.9443.86,3.0692,3.0692,0,0,1-1.3926.3047h-2.1406Zm2.0986,4.128a2.0765,2.0765,0,0,0,.9483-.2061,1.48,1.48,0,0,0,.63-.5879,1.8838,1.8838,0,0,0,0-1.7695,1.4735,1.4735,0,0,0-.63-.5879,2.0767,2.0767,0,0,0-.9483-.207H145.665V50.96Z" style="fill: #11698d"/>
    </g>
  </g>
</svg>
